{"accessors" : [{"bufferView" : 0, "byteOffset" : 0, "componentType" : 5123, "count" : 6324, "type" : "SCALAR", "max" : [1055], "min" : [0]}, {"bufferView" : 1, "byteOffset" : 0, "componentType" : 5126, "count" : 1056, "type" : "VEC3", "max" : [0.09097400307655334, 6.738117218017578, 0.7354519963264465], "min" : [-0.09096600115299225, 4.152475833892822, -0.6379920244216919], "name" : "POSITION"}], "asset" : {"generator" : "Aspose.3D 24.2.0", "version" : "2.0"}, "buffers" : [{"uri" : "buffer.bin", "byteLength" : 25328}], "bufferViews" : [{"buffer" : 0, "byteOffset" : 0, "byteLength" : 12648, "target" : 34963}, {"buffer" : 0, "byteOffset" : 12652, "byteLength" : 12672, "byteStride" : 12, "target" : 34962}], "meshes" : [{"primitives" : [{"attributes" : {"POSITION" : 1}, "indices" : 0, "mode" : 4}], "name" : ""}], "nodes" : [{"mesh" : 0, "name" : "Cylinder"}], "scene" : 0, "scenes" : [{"nodes" : [0]}]}